  0
SECTION
  2
HEADER
  9
$ACADVER
  1
AC1009
  9
$INSBASE
 10
0.0
 20
0.0
 30
0.0
  9
$EXTMIN
 10
0.0
 20
0.0
 30
0.0
  9
$EXTMAX
 10
0.0
 20
0.0
 30
0.0
  0
ENDSEC
  0
SECTION
  2
TABLES
  0
TABLE
  2
VPORT
 70
0
  0
ENDTAB
  0
TABLE
  2
LTYPE
 70
1
  0
LTYPE
  2
CONTINUOUS
 70
0
  3
Solid line
 72
65
 73
0
 40
0.0
  0
ENDTAB
  0
TABLE
  2
LAYER
 70
1
  0
LAYER
  2
0
 70
64
 62
7
  6
continuous
  0
ENDTAB
  0
TABLE
  2
STYLE
 70
1
  0
STYLE
  2
STANDARD
 70
0
 40
0
 41
1.0
 50
0.0
 71
0
 42
1
 3
ARIAL.TTF
 4

  0
ENDTAB
  0
TABLE
  2
VIEW
 70
0
  0
ENDTAB
  0
ENDSEC
  0
SECTION
  2
BLOCKS
  0
BLOCK
  8
0
  2
SKETCH004
 70
0
 10
0.0
 20
0.0
 30
0.0
  3
SKETCH004
  0
POLYLINE
  8
0
 62
250
 70
0
 66
1
 10
0.0
 20
0.0
 30
0.0
  0
VERTEX
  8
0
 10
24.919871588754226
 20
-2.000000000000002
 30
0.0
  0
VERTEX
  8
0
 10
25.0
 20
0.0
 30
0.0
 42
-0.04447288748945101
  0
VERTEX
  8
0
 10
24.605992562509943
 20
-4.420987447811316
 30
0.0
  0
VERTEX
  8
0
 10
19.778807012766205
 20
-6.582682764073633
 30
0.0
  0
VERTEX
  8
0
 10
18.477590682483534
 20
-7.653668569424577
 30
0.0
  0
VERTEX
  8
0
 10
18.64038812536374
 20
-9.331068754069207
 30
0.0
  0
VERTEX
  8
0
 10
20.525174402664526
 20
-14.272953994888546
 30
0.0
 42
-0.08912204391919613
  0
VERTEX
  8
0
 10
14.272953994888548
 20
-20.525174402664526
 30
0.0
  0
VERTEX
  8
0
 10
9.331068847849975
 20
-18.64038815437352
 30
0.0
  0
VERTEX
  8
0
 10
7.6536686473017905
 20
-18.477590650225736
 30
0.0
  0
VERTEX
  8
0
 10
6.582682809873638
 20
-19.778806925940174
 30
0.0
  0
VERTEX
  8
0
 10
4.420987447811318
 20
-24.605992562509947
 30
0.0
 42
-0.08912204391919568
  0
VERTEX
  8
0
 10
-4.420987447811316
 20
-24.605992562509943
 30
0.0
  0
VERTEX
  8
0
 10
-6.582682809873647
 20
-19.778806925940174
 30
0.0
  0
VERTEX
  8
0
 10
-7.6536686473018
 20
-18.477590650225732
 30
0.0
  0
VERTEX
  8
0
 10
-9.331068847849986
 20
-18.640388154373518
 30
0.0
  0
VERTEX
  8
0
 10
-14.272953994888562
 20
-20.525174402664515
 30
0.0
 42
-0.08912204391919545
  0
VERTEX
  8
0
 10
-20.52517440266452
 20
-14.272953994888548
 30
0.0
  0
VERTEX
  8
0
 10
-18.640388154373518
 20
-9.331068847849975
 30
0.0
  0
VERTEX
  8
0
 10
-18.477590650225732
 20
-7.65366864730179
 30
0.0
  0
VERTEX
  8
0
 10
-19.77880692594017
 20
-6.582682809873637
 30
0.0
  0
VERTEX
  8
0
 10
-24.605992562509947
 20
-4.420987447811308
 30
0.0
 42
-0.08912204391919579
  0
VERTEX
  8
0
 10
-24.605992562509943
 20
4.4209874478113145
 30
0.0
  0
VERTEX
  8
0
 10
-19.778806925940174
 20
6.5826828098736465
 30
0.0
  0
VERTEX
  8
0
 10
-18.477590650225732
 20
7.653668647301799
 30
0.0
  0
VERTEX
  8
0
 10
-18.640388154373518
 20
9.331068847849986
 30
0.0
  0
VERTEX
  8
0
 10
-20.52517440266453
 20
14.272953994888542
 30
0.0
 42
-0.08912204391919568
  0
VERTEX
  8
0
 10
-14.272953994888544
 20
20.525174402664526
 30
0.0
  0
VERTEX
  8
0
 10
-9.331068941630754
 20
18.6403881833833
 30
0.0
  0
VERTEX
  8
0
 10
-7.653668725179014
 20
18.477590617967937
 30
0.0
  0
VERTEX
  8
0
 10
-6.582682855673653
 20
19.778806839114143
 30
0.0
  0
VERTEX
  8
0
 10
-4.420987447811299
 20
24.605992562509947
 30
0.0
 42
-0.08912204391919545
  0
VERTEX
  8
0
 10
4.42098744781131
 20
24.60599256250995
 30
0.0
  0
VERTEX
  8
0
 10
6.582682753780315
 20
19.778807032279907
 30
0.0
  0
VERTEX
  8
0
 10
7.653668551922071
 20
18.477590689733308
 30
0.0
  0
VERTEX
  8
0
 10
9.331068732992458
 20
18.640388118843937
 30
0.0
  0
VERTEX
  8
0
 10
14.27295399488856
 20
20.52517440266452
 30
0.0
 42
-0.08912204391919568
  0
VERTEX
  8
0
 10
20.525174402664526
 20
14.27295399488855
 30
0.0
  0
VERTEX
  8
0
 10
18.640388189903096
 20
9.331068962707503
 30
0.0
  0
VERTEX
  8
0
 10
18.47759061071816
 20
7.653668742681522
 30
0.0
  0
VERTEX
  8
0
 10
19.778806819600437
 20
6.582682865966973
 30
0.0
  0
VERTEX
  8
0
 10
24.605992562509947
 20
4.420987447811323
 30
0.0
 42
-0.04447288748945101
  0
VERTEX
  8
0
 10
25.0
 20
8e-17
 30
0.0
  0
VERTEX
  8
0
 10
25.0
 20
-3.021617018317362e-15
 30
0.0
  0
SEQEND
  8
0
  0
POLYLINE
  8
0
 62
250
 70
1
 66
1
 10
0.0
 20
0.0
 30
0.0
  0
VERTEX
  8
0
 10
24.605996687056575
 20
-4.42096449166479
 30
0.0
  0
VERTEX
  8
0
 10
24.036798124947524
 20
-6.87257852864372
 30
0.0
  0
VERTEX
  8
0
 10
21.85616936076553
 20
-12.137044969796067
 30
0.0
  0
VERTEX
  8
0
 10
20.525161086712533
 20
-14.272973143830322
 30
0.0
  0
VERTEX
  8
0
 10
21.85616936076553
 20
-12.137044969796069
 30
0.0
  0
VERTEX
  8
0
 10
24.036798124947524
 20
-6.87257852864372
 30
0.0
  0
SEQEND
  8
0
  0
POLYLINE
  8
0
 62
250
 70
1
 66
1
 10
0.0
 20
0.0
 30
0.0
  0
VERTEX
  8
0
 10
14.272973143830313
 20
-20.525161086712536
 30
0.0
  0
VERTEX
  8
0
 10
12.136936070318622
 20
-21.856229834005088
 30
0.0
  0
VERTEX
  8
0
 10
6.872458764046738
 20
-24.036832367468786
 30
0.0
  0
VERTEX
  8
0
 10
4.42096449166478
 20
-24.605996687056575
 30
0.0
  0
VERTEX
  8
0
 10
6.872458764046737
 20
-24.036832367468786
 30
0.0
  0
VERTEX
  8
0
 10
12.13693607031862
 20
-21.856229834005088
 30
0.0
  0
SEQEND
  8
0
  0
POLYLINE
  8
0
 62
250
 70
1
 66
1
 10
0.0
 20
0.0
 30
0.0
  0
VERTEX
  8
0
 10
-4.4209644916647886
 20
-24.605996687056575
 30
0.0
  0
VERTEX
  8
0
 10
-6.872578528583073
 20
-24.036798124964864
 30
0.0
  0
VERTEX
  8
0
 10
-12.13704496971827
 20
-21.856169360808696
 30
0.0
  0
VERTEX
  8
0
 10
-14.272973143830322
 20
-20.525161086712533
 30
0.0
  0
VERTEX
  8
0
 10
-12.13704496971827
 20
-21.856169360808696
 30
0.0
  0
VERTEX
  8
0
 10
-6.872578528583073
 20
-24.036798124964864
 30
0.0
  0
SEQEND
  8
0
  0
POLYLINE
  8
0
 62
250
 70
1
 66
1
 10
0.0
 20
0.0
 30
0.0
  0
VERTEX
  8
0
 10
-20.52516108671253
 20
-14.272973143830326
 30
0.0
  0
VERTEX
  8
0
 10
-21.856230066508214
 20
-12.13693565162611
 30
0.0
  0
VERTEX
  8
0
 10
-24.0368326294558
 20
-6.872457848843063
 30
0.0
  0
VERTEX
  8
0
 10
-24.60599668705658
 20
-4.42096449166476
 30
0.0
  0
VERTEX
  8
0
 10
-24.0368326294558
 20
-6.872457848843062
 30
0.0
  0
VERTEX
  8
0
 10
-21.856230066508214
 20
-12.13693565162611
 30
0.0
  0
SEQEND
  8
0
  0
POLYLINE
  8
0
 62
250
 70
1
 66
1
 10
0.0
 20
0.0
 30
0.0
  0
VERTEX
  8
0
 10
-24.605996687056575
 20
4.420964491664787
 30
0.0
  0
VERTEX
  8
0
 10
-24.03679799329049
 20
6.872578989112972
 30
0.0
  0
VERTEX
  8
0
 10
-21.85616889886645
 20
12.13704580220486
 30
0.0
  0
VERTEX
  8
0
 10
-20.525161086712533
 20
14.272973143830322
 30
0.0
  0
VERTEX
  8
0
 10
-21.85616889886645
 20
12.137045802204861
 30
0.0
  0
VERTEX
  8
0
 10
-24.036797993290488
 20
6.872578989112972
 30
0.0
  0
SEQEND
  8
0
  0
POLYLINE
  8
0
 62
250
 70
1
 66
1
 10
0.0
 20
0.0
 30
0.0
  0
VERTEX
  8
0
 10
-14.272973143830317
 20
20.525161086712533
 30
0.0
  0
VERTEX
  8
0
 10
-12.136936070319402
 20
21.856229834004665
 30
0.0
  0
VERTEX
  8
0
 10
-6.872458764048333
 20
24.03683236746833
 30
0.0
  0
VERTEX
  8
0
 10
-4.420964491664794
 20
24.60599668705657
 30
0.0
  0
VERTEX
  8
0
 10
-6.872458764048332
 20
24.03683236746833
 30
0.0
  0
VERTEX
  8
0
 10
-12.136936070319402
 20
21.856229834004665
 30
0.0
  0
SEQEND
  8
0
  0
POLYLINE
  8
0
 62
250
 70
1
 66
1
 10
0.0
 20
0.0
 30
0.0
  0
VERTEX
  8
0
 10
4.420964491664785
 20
24.605996687056575
 30
0.0
  0
VERTEX
  8
0
 10
6.872578989108256
 20
24.036797993291838
 30
0.0
  0
VERTEX
  8
0
 10
12.137045802194564
 20
21.856168898872166
 30
0.0
  0
VERTEX
  8
0
 10
14.272973143830313
 20
20.525161086712536
 30
0.0
  0
VERTEX
  8
0
 10
12.137045802194566
 20
21.856168898872166
 30
0.0
  0
VERTEX
  8
0
 10
6.872578989108256
 20
24.036797993291838
 30
0.0
  0
SEQEND
  8
0
  0
POLYLINE
  8
0
 62
250
 70
1
 66
1
 10
0.0
 20
0.0
 30
0.0
  0
VERTEX
  8
0
 10
20.52516126967029
 20
14.272972880729043
 30
0.0
  0
VERTEX
  8
0
 10
21.856230168292527
 20
12.136935468332645
 30
0.0
  0
VERTEX
  8
0
 10
24.03683217812601
 20
6.872459426283777
 30
0.0
  0
VERTEX
  8
0
 10
24.605996630386546
 20
4.420964807076157
 30
0.0
  0
VERTEX
  8
0
 10
24.036832178126012
 20
6.872459426283777
 30
0.0
  0
VERTEX
  8
0
 10
21.856230168292527
 20
12.136935468332643
 30
0.0
  0
SEQEND
  8
0
  0
POLYLINE
  8
0
 62
250
 70
1
 66
1
 10
0.0
 20
0.0
 30
0.0
  0
VERTEX
  8
0
 10
19.03522374907919
 20
16.206796624332995
 30
0.0
  0
VERTEX
  8
0
 10
16.206797587920345
 20
19.03522293069028
 30
0.0
  0
VERTEX
  8
0
 10
19.03522374907919
 20
16.206796624332995
 30
0.0
  0
VERTEX
  8
0
 10
16.206797587920345
 20
19.03522293069028
 30
0.0
  0
SEQEND
  8
0
  0
POLYLINE
  8
0
 62
250
 70
1
 66
1
 10
0.0
 20
0.0
 30
0.0
  0
VERTEX
  8
0
 10
2.000000000000004
 20
24.91987158875423
 30
0.0
  0
VERTEX
  8
0
 10
-1.9999987399525128
 20
24.919871691425023
 30
0.0
  0
VERTEX
  8
0
 10
2.000000000000004
 20
24.91987158875423
 30
0.0
  0
VERTEX
  8
0
 10
-1.9999987399525128
 20
24.919871691425023
 30
0.0
  0
SEQEND
  8
0
  0
POLYLINE
  8
0
 62
250
 70
1
 66
1
 10
0.0
 20
0.0
 30
0.0
  0
VERTEX
  8
0
 10
-16.206796624332995
 20
19.035223749079194
 30
0.0
  0
VERTEX
  8
0
 10
-19.035222930824066
 20
16.20679758776533
 30
0.0
  0
VERTEX
  8
0
 10
-16.206796624332995
 20
19.035223749079194
 30
0.0
  0
VERTEX
  8
0
 10
-19.035222930824066
 20
16.20679758776533
 30
0.0
  0
SEQEND
  8
0
  0
POLYLINE
  8
0
 62
250
 70
1
 66
1
 10
0.0
 20
0.0
 30
0.0
  0
VERTEX
  8
0
 10
-2.0000000000000004
 20
-24.91987158875423
 30
0.0
  0
VERTEX
  8
0
 10
1.9999987401589512
 20
-24.91987169140983
 30
0.0
  0
VERTEX
  8
0
 10
-2.0000000000000004
 20
-24.91987158875423
 30
0.0
  0
VERTEX
  8
0
 10
1.9999987401589512
 20
-24.91987169140983
 30
0.0
  0
SEQEND
  8
0
  0
POLYLINE
  8
0
 62
250
 70
1
 66
1
 10
0.0
 20
0.0
 30
0.0
  0
VERTEX
  8
0
 10
16.206796624333005
 20
-19.035223749079194
 30
0.0
  0
VERTEX
  8
0
 10
19.035222930824744
 20
-16.20679758776454
 30
0.0
  0
VERTEX
  8
0
 10
16.206796624333005
 20
-19.035223749079194
 30
0.0
  0
VERTEX
  8
0
 10
19.035222930824744
 20
-16.20679758776454
 30
0.0
  0
SEQEND
  8
0
  0
POLYLINE
  8
0
 62
250
 70
1
 66
1
 10
0.0
 20
0.0
 30
0.0
  0
VERTEX
  8
0
 10
-24.91987158875423
 20
1.9999999999999998
 30
0.0
  0
VERTEX
  8
0
 10
-24.919878269092486
 20
-1.999916766732939
 30
0.0
  0
VERTEX
  8
0
 10
-24.91987158875423
 20
1.9999999999999998
 30
0.0
  0
VERTEX
  8
0
 10
-24.919878269092486
 20
-1.999916766732939
 30
0.0
  0
SEQEND
  8
0
  0
POLYLINE
  8
0
 62
250
 70
1
 66
1
 10
0.0
 20
0.0
 30
0.0
  0
VERTEX
  8
0
 10
-19.03522374907919
 20
-16.206796624333
 30
0.0
  0
VERTEX
  8
0
 10
-16.206797587768495
 20
-19.03522293082138
 30
0.0
  0
VERTEX
  8
0
 10
-19.03522374907919
 20
-16.206796624333
 30
0.0
  0
VERTEX
  8
0
 10
-16.206797587768495
 20
-19.03522293082138
 30
0.0
  0
SEQEND
  8
0
  0
CIRCLE
  8
0
 62
250
 10
0.0
 20
0.0
 30
0.0
 40
5.0
  0
POLYLINE
  8
0
 62
250
 70
1
 66
1
 10
0.0
 20
0.0
 30
0.0
  0
VERTEX
  8
0
 10
6.0000001
 20
-0.0001395089285716189
 30
0.0
  0
VERTEX
  8
0
 10
7.410016841071428
 20
-1.5446428571428572
 30
0.0
  0
VERTEX
  8
0
 10
8.815708805357142
 20
-0.0001395089285716189
 30
0.0
  0
VERTEX
  8
0
 10
7.410016841071428
 20
1.5446428571428568
 30
0.0
  0
SEQEND
  8
0
  0
POLYLINE
  8
0
 62
250
 70
1
 66
1
 10
0.0
 20
0.0
 30
0.0
  0
VERTEX
  8
0
 10
6.462890725
 20
-0.0001395089285716189
 30
0.0
  0
VERTEX
  8
0
 10
7.410016841071428
 20
1.1074218749999996
 30
0.0
  0
VERTEX
  8
0
 10
8.352818180357142
 20
-0.0001395089285716189
 30
0.0
  0
VERTEX
  8
0
 10
7.410016841071428
 20
-1.1075613839285716
 30
0.0
  0
SEQEND
  8
0
  0
POLYLINE
  8
0
 62
250
 70
1
 66
1
 10
0.0
 20
0.0
 30
0.0
  0
VERTEX
  8
0
 10
11.562779117857142
 20
-1.5
 30
0.0
  0
VERTEX
  8
0
 10
11.562779117857142
 20
-1.0715680803571428
 30
0.0
  0
VERTEX
  8
0
 10
9.89564742142857
 20
-1.0715680803571428
 30
0.0
  0
VERTEX
  8
0
 10
9.89564742142857
 20
-0.1250000000000001
 30
0.0
  0
VERTEX
  8
0
 10
11.378487823214284
 20
-0.1250000000000001
 30
0.0
  0
VERTEX
  8
0
 10
11.378487823214284
 20
0.28208705357142805
 30
0.0
  0
VERTEX
  8
0
 10
9.895647421428572
 20
0.28208705357142805
 30
0.0
  0
VERTEX
  8
0
 10
9.895647421428572
 20
1.0714285714285707
 30
0.0
  0
VERTEX
  8
0
 10
11.524274653571428
 20
1.0714285714285707
 30
0.0
  0
VERTEX
  8
0
 10
11.524274653571428
 20
1.4999999999999991
 30
0.0
  0
VERTEX
  8
0
 10
9.411411930357144
 20
1.4999999999999991
 30
0.0
  0
VERTEX
  8
0
 10
9.411411930357144
 20
-1.5
 30
0.0
  0
SEQEND
  8
0
  0
POLYLINE
  8
0
 62
250
 70
1
 66
1
 10
0.0
 20
0.0
 30
0.0
  0
VERTEX
  8
0
 10
12.254324876785713
 20
1.0756138392857135
 30
0.0
  0
VERTEX
  8
0
 10
12.254324876785713
 20
0.5998883928571426
 30
0.0
  0
VERTEX
  8
0
 10
13.025669742857142
 20
0.9941406249999993
 30
0.0
  0
VERTEX
  8
0
 10
13.025669742857142
 20
-1.5
 30
0.0
  0
VERTEX
  8
0
 10
13.497070412499998
 20
-1.5
 30
0.0
  0
VERTEX
  8
0
 10
13.497070412499998
 20
1.4999999999999991
 30
0.0
  0
VERTEX
  8
0
 10
13.081473314285711
 20
1.4999999999999991
 30
0.0
  0
SEQEND
  8
0
  0
POLYLINE
  8
0
 62
250
 70
1
 66
1
 10
0.0
 20
0.0
 30
0.0
  0
VERTEX
  8
0
 10
16.794921974999998
 20
-1.5
 30
0.0
  0
VERTEX
  8
0
 10
16.794921974999998
 20
-1.0715680803571428
 30
0.0
  0
VERTEX
  8
0
 10
15.127790278571426
 20
-1.0715680803571428
 30
0.0
  0
VERTEX
  8
0
 10
15.127790278571426
 20
-0.1250000000000001
 30
0.0
  0
VERTEX
  8
0
 10
16.610630680357144
 20
-0.1250000000000001
 30
0.0
  0
VERTEX
  8
0
 10
16.610630680357144
 20
0.28208705357142805
 30
0.0
  0
VERTEX
  8
0
 10
15.127790278571426
 20
0.28208705357142805
 30
0.0
  0
VERTEX
  8
0
 10
15.127790278571426
 20
1.0714285714285707
 30
0.0
  0
VERTEX
  8
0
 10
16.756417510714286
 20
1.0714285714285707
 30
0.0
  0
VERTEX
  8
0
 10
16.756417510714286
 20
1.4999999999999991
 30
0.0
  0
VERTEX
  8
0
 10
14.643554787500001
 20
1.4999999999999991
 30
0.0
  0
VERTEX
  8
0
 10
14.643554787500001
 20
-1.5
 30
0.0
  0
SEQEND
  8
0
  0
POLYLINE
  8
0
 62
250
 70
1
 66
1
 10
0.0
 20
0.0
 30
0.0
  0
VERTEX
  8
0
 10
17.35784050178571
 20
1.4999999999999991
 30
0.0
  0
VERTEX
  8
0
 10
17.35784050178571
 20
-1.5
 30
0.0
  0
VERTEX
  8
0
 10
18.72921326964285
 20
-1.5
 30
0.0
  0
VERTEX
  8
0
 10
19.779296974999998
 20
-0.6390904017857145
 30
0.0
  0
VERTEX
  8
0
 10
19.324916394642855
 20
0.07170758928571397
 30
0.0
  0
VERTEX
  8
0
 10
19.324916394642855
 20
0.0845424107142854
 30
0.0
  0
VERTEX
  8
0
 10
19.719308135714282
 20
0.7151227678571423
 30
0.0
  0
VERTEX
  8
0
 10
18.755022421428567
 20
1.4999999999999991
 30
0.0
  0
SEQEND
  8
0
  0
POLYLINE
  8
0
 62
250
 70
1
 66
1
 10
0.0
 20
0.0
 30
0.0
  0
VERTEX
  8
0
 10
18.707868403571425
 20
-0.13392857142857173
 30
0.0
  0
VERTEX
  8
0
 10
19.312081573214282
 20
-0.6134207589285715
 30
0.0
  0
VERTEX
  8
0
 10
18.707868403571425
 20
-1.0757533482142858
 30
0.0
  0
VERTEX
  8
0
 10
17.833565948214282
 20
-1.0757533482142858
 30
0.0
  0
VERTEX
  8
0
 10
17.833565948214282
 20
-0.13392857142857173
 30
0.0
  0
SEQEND
  8
0
  0
POLYLINE
  8
0
 62
250
 70
1
 66
1
 10
0.0
 20
0.0
 30
0.0
  0
VERTEX
  8
0
 10
18.72502800178571
 20
1.0842633928571423
 30
0.0
  0
VERTEX
  8
0
 10
19.256417510714282
 20
0.6808035714285707
 30
0.0
  0
VERTEX
  8
0
 10
18.703543626785713
 20
0.26883370535714257
 30
0.0
  0
VERTEX
  8
0
 10
17.833565948214286
 20
0.26883370535714257
 30
0.0
  0
VERTEX
  8
0
 10
17.833565948214286
 20
1.0842633928571423
 30
0.0
  0
SEQEND
  8
0
  0
POLYLINE
  8
0
 62
250
 70
1
 66
1
 10
0.0
 20
0.0
 30
0.0
  0
VERTEX
  8
0
 10
20.27678581428571
 20
0.000976562499999778
 30
0.0
  0
VERTEX
  8
0
 10
21.712472198214282
 20
-1.5446428571428572
 30
0.0
  0
VERTEX
  8
0
 10
23.006696528571425
 20
-0.3162667410714288
 30
0.0
  0
VERTEX
  8
0
 10
23.006696528571425
 20
0.13392857142857112
 30
0.0
  0
VERTEX
  8
0
 10
21.669642957142855
 20
0.13392857142857112
 30
0.0
  0
VERTEX
  8
0
 10
21.669642957142855
 20
-0.27762276785714307
 30
0.0
  0
VERTEX
  8
0
 10
22.54813068035714
 20
-0.27762276785714307
 30
0.0
  0
VERTEX
  8
0
 10
22.535295858928567
 20
-0.4366629464285716
 30
0.0
  0
VERTEX
  8
0
 10
21.703962153571425
 20
-1.1075613839285716
 30
0.0
  0
VERTEX
  8
0
 10
20.739676439285713
 20
0.000976562499999778
 30
0.0
  0
VERTEX
  8
0
 10
21.708147421428567
 20
1.1074218749999996
 30
0.0
  0
VERTEX
  8
0
 10
22.50530143928571
 20
0.5327845982142856
 30
0.0
  0
VERTEX
  8
0
 10
22.972516841071425
 20
0.5327845982142856
 30
0.0
  0
VERTEX
  8
0
 10
21.703962153571425
 20
1.5446428571428568
 30
0.0
  0
SEQEND
  8
0
  0
ARC
  8
0
 62
250
 10
0.0
 20
0.0
 30
0.0
 40
25.0
 50
-10.185723325792079
 51
-0.0
  0
POLYLINE
  8
0
 62
250
 70
0
 66
1
 10
0.0
 20
0.0
 30
0.0
  0
VERTEX
  8
0
 10
18.477590682483534
 20
-7.653668569424577
 30
0.0
  0
VERTEX
  8
0
 10
19.778807012766205
 20
-6.582682764073634
 30
0.0
  0
VERTEX
  8
0
 10
24.60599256250994
 20
-4.420987447811316
 30
0.0
  0
SEQEND
  8
0
  0
POLYLINE
  8
0
 62
250
 70
0
 66
1
 10
0.0
 20
0.0
 30
0.0
  0
VERTEX
  8
0
 10
20.525174402664515
 20
-14.272953994888553
 30
0.0
  0
VERTEX
  8
0
 10
18.64038812536374
 20
-9.331068754069207
 30
0.0
  0
VERTEX
  8
0
 10
18.477590682483534
 20
-7.653668569424577
 30
0.0
  0
SEQEND
  8
0
  0
ARC
  8
0
 62
250
 10
0.0
 20
0.0
 30
0.0
 40
25.0
 50
-55.18572332579207
 51
-34.81427667420799
  0
POLYLINE
  8
0
 62
250
 70
0
 66
1
 10
0.0
 20
0.0
 30
0.0
  0
VERTEX
  8
0
 10
7.6536686473017905
 20
-18.477590650225736
 30
0.0
  0
VERTEX
  8
0
 10
9.331068847849977
 20
-18.64038815437352
 30
0.0
  0
VERTEX
  8
0
 10
14.272953994888548
 20
-20.525174402664526
 30
0.0
  0
SEQEND
  8
0
  0
POLYLINE
  8
0
 62
250
 70
0
 66
1
 10
0.0
 20
0.0
 30
0.0
  0
VERTEX
  8
0
 10
4.4209874478113065
 20
-24.60599256250994
 30
0.0
  0
VERTEX
  8
0
 10
6.582682809873638
 20
-19.778806925940174
 30
0.0
  0
VERTEX
  8
0
 10
7.6536686473017905
 20
-18.477590650225736
 30
0.0
  0
SEQEND
  8
0
  0
ARC
  8
0
 62
250
 10
0.0
 20
0.0
 30
0.0
 40
25.0
 50
-100.18572332579201
 51
-79.81427667420797
  0
POLYLINE
  8
0
 62
250
 70
0
 66
1
 10
0.0
 20
0.0
 30
0.0
  0
VERTEX
  8
0
 10
-7.6536686473018
 20
-18.477590650225732
 30
0.0
  0
VERTEX
  8
0
 10
-6.582682809873647
 20
-19.778806925940174
 30
0.0
  0
VERTEX
  8
0
 10
-4.420987447811315
 20
-24.605992562509947
 30
0.0
  0
SEQEND
  8
0
  0
POLYLINE
  8
0
 62
250
 70
0
 66
1
 10
0.0
 20
0.0
 30
0.0
  0
VERTEX
  8
0
 10
-14.272953994888553
 20
-20.525174402664515
 30
0.0
  0
VERTEX
  8
0
 10
-9.331068847849986
 20
-18.640388154373518
 30
0.0
  0
VERTEX
  8
0
 10
-7.6536686473018
 20
-18.477590650225732
 30
0.0
  0
SEQEND
  8
0
  0
ARC
  8
0
 62
250
 10
0.0
 20
0.0
 30
0.0
 40
25.0
 50
-145.18572332579203
 51
-124.81427667420802
  0
POLYLINE
  8
0
 62
250
 70
0
 66
1
 10
0.0
 20
0.0
 30
0.0
  0
VERTEX
  8
0
 10
-18.477590650225732
 20
-7.65366864730179
 30
0.0
  0
VERTEX
  8
0
 10
-18.640388154373518
 20
-9.331068847849977
 30
0.0
  0
VERTEX
  8
0
 10
-20.52517440266452
 20
-14.272953994888548
 30
0.0
  0
SEQEND
  8
0
  0
POLYLINE
  8
0
 62
250
 70
0
 66
1
 10
0.0
 20
0.0
 30
0.0
  0
VERTEX
  8
0
 10
-24.605992562509947
 20
-4.420987447811305
 30
0.0
  0
VERTEX
  8
0
 10
-19.77880692594017
 20
-6.582682809873637
 30
0.0
  0
VERTEX
  8
0
 10
-18.477590650225732
 20
-7.65366864730179
 30
0.0
  0
SEQEND
  8
0
  0
ARC
  8
0
 62
250
 10
0.0
 20
0.0
 30
0.0
 40
25.0
 50
169.81427667420795
 51
-169.81427667420797
  0
POLYLINE
  8
0
 62
250
 70
0
 66
1
 10
0.0
 20
0.0
 30
0.0
  0
VERTEX
  8
0
 10
-18.477590650225732
 20
7.653668647301799
 30
0.0
  0
VERTEX
  8
0
 10
-19.778806925940174
 20
6.5826828098736465
 30
0.0
  0
VERTEX
  8
0
 10
-24.605992562509947
 20
4.420987447811314
 30
0.0
  0
SEQEND
  8
0
  0
POLYLINE
  8
0
 62
250
 70
0
 66
1
 10
0.0
 20
0.0
 30
0.0
  0
VERTEX
  8
0
 10
-20.52517440266452
 20
14.272953994888557
 30
0.0
  0
VERTEX
  8
0
 10
-18.640388154373518
 20
9.331068847849986
 30
0.0
  0
VERTEX
  8
0
 10
-18.477590650225732
 20
7.653668647301799
 30
0.0
  0
SEQEND
  8
0
  0
ARC
  8
0
 62
250
 10
0.0
 20
0.0
 30
0.0
 40
25.0
 50
124.81427667420799
 51
145.18572332579203
  0
POLYLINE
  8
0
 62
250
 70
0
 66
1
 10
0.0
 20
0.0
 30
0.0
  0
VERTEX
  8
0
 10
-7.653668725179014
 20
18.477590617967937
 30
0.0
  0
VERTEX
  8
0
 10
-9.331068941630754
 20
18.6403881833833
 30
0.0
  0
VERTEX
  8
0
 10
-14.272953994888544
 20
20.525174402664526
 30
0.0
  0
SEQEND
  8
0
  0
POLYLINE
  8
0
 62
250
 70
0
 66
1
 10
0.0
 20
0.0
 30
0.0
  0
VERTEX
  8
0
 10
-4.4209874478113065
 20
24.605992562509947
 30
0.0
  0
VERTEX
  8
0
 10
-6.582682855673653
 20
19.778806839114143
 30
0.0
  0
VERTEX
  8
0
 10
-7.653668725179014
 20
18.477590617967937
 30
0.0
  0
SEQEND
  8
0
  0
ARC
  8
0
 62
250
 10
0.0
 20
0.0
 30
0.0
 40
25.0
 50
79.81427667420799
 51
100.18572332579201
  0
POLYLINE
  8
0
 62
250
 70
0
 66
1
 10
0.0
 20
0.0
 30
0.0
  0
VERTEX
  8
0
 10
7.653668551922071
 20
18.477590689733308
 30
0.0
  0
VERTEX
  8
0
 10
6.582682753780315
 20
19.778807032279907
 30
0.0
  0
VERTEX
  8
0
 10
4.42098744781131
 20
24.60599256250995
 30
0.0
  0
SEQEND
  8
0
  0
POLYLINE
  8
0
 62
250
 70
0
 66
1
 10
0.0
 20
0.0
 30
0.0
  0
VERTEX
  8
0
 10
14.272953994888553
 20
20.52517440266452
 30
0.0
  0
VERTEX
  8
0
 10
9.331068732992458
 20
18.640388118843937
 30
0.0
  0
VERTEX
  8
0
 10
7.653668551922071
 20
18.477590689733308
 30
0.0
  0
SEQEND
  8
0
  0
ARC
  8
0
 62
250
 10
0.0
 20
0.0
 30
0.0
 40
25.0
 50
34.81427667420797
 51
55.185723325792004
  0
POLYLINE
  8
0
 62
250
 70
0
 66
1
 10
0.0
 20
0.0
 30
0.0
  0
VERTEX
  8
0
 10
18.47759061071816
 20
7.653668742681522
 30
0.0
  0
VERTEX
  8
0
 10
18.640388189903096
 20
9.331068962707501
 30
0.0
  0
VERTEX
  8
0
 10
20.525174402664526
 20
14.27295399488855
 30
0.0
  0
SEQEND
  8
0
  0
POLYLINE
  8
0
 62
250
 70
0
 66
1
 10
0.0
 20
0.0
 30
0.0
  0
VERTEX
  8
0
 10
24.605992562509947
 20
4.42098744781131
 30
0.0
  0
VERTEX
  8
0
 10
19.778806819600437
 20
6.582682865966973
 30
0.0
  0
VERTEX
  8
0
 10
18.47759061071816
 20
7.653668742681522
 30
0.0
  0
SEQEND
  8
0
  0
ARC
  8
0
 62
250
 10
0.0
 20
0.0
 30
0.0
 40
25.0
 50
-0.0
 51
10.185723325792042
  0
POLYLINE
  8
0
 62
250
 70
0
 66
1
 10
0.0
 20
0.0
 30
0.0
  0
VERTEX
  8
0
 10
24.605996687056575
 20
-4.42096449166479
 30
0.0
  0
VERTEX
  8
0
 10
24.036798124947524
 20
-6.87257852864372
 30
0.0
  0
VERTEX
  8
0
 10
21.85616936076553
 20
-12.137044969796067
 30
0.0
  0
VERTEX
  8
0
 10
20.525161086712533
 20
-14.272973143830322
 30
0.0
  0
SEQEND
  8
0
  0
POLYLINE
  8
0
 62
250
 70
0
 66
1
 10
0.0
 20
0.0
 30
0.0
  0
VERTEX
  8
0
 10
14.272973143830313
 20
-20.525161086712536
 30
0.0
  0
VERTEX
  8
0
 10
12.136936070318622
 20
-21.856229834005088
 30
0.0
  0
VERTEX
  8
0
 10
6.872458764046738
 20
-24.036832367468786
 30
0.0
  0
VERTEX
  8
0
 10
4.42096449166478
 20
-24.605996687056575
 30
0.0
  0
SEQEND
  8
0
  0
POLYLINE
  8
0
 62
250
 70
0
 66
1
 10
0.0
 20
0.0
 30
0.0
  0
VERTEX
  8
0
 10
-4.4209644916647886
 20
-24.605996687056575
 30
0.0
  0
VERTEX
  8
0
 10
-6.872578528583073
 20
-24.036798124964864
 30
0.0
  0
VERTEX
  8
0
 10
-12.13704496971827
 20
-21.856169360808696
 30
0.0
  0
VERTEX
  8
0
 10
-14.272973143830322
 20
-20.525161086712533
 30
0.0
  0
SEQEND
  8
0
  0
POLYLINE
  8
0
 62
250
 70
0
 66
1
 10
0.0
 20
0.0
 30
0.0
  0
VERTEX
  8
0
 10
-20.52516108671253
 20
-14.272973143830326
 30
0.0
  0
VERTEX
  8
0
 10
-21.856230066508214
 20
-12.13693565162611
 30
0.0
  0
VERTEX
  8
0
 10
-24.0368326294558
 20
-6.872457848843063
 30
0.0
  0
VERTEX
  8
0
 10
-24.60599668705658
 20
-4.42096449166476
 30
0.0
  0
SEQEND
  8
0
  0
POLYLINE
  8
0
 62
250
 70
0
 66
1
 10
0.0
 20
0.0
 30
0.0
  0
VERTEX
  8
0
 10
-24.605996687056575
 20
4.420964491664787
 30
0.0
  0
VERTEX
  8
0
 10
-24.03679799329049
 20
6.872578989112972
 30
0.0
  0
VERTEX
  8
0
 10
-21.85616889886645
 20
12.13704580220486
 30
0.0
  0
VERTEX
  8
0
 10
-20.525161086712533
 20
14.272973143830322
 30
0.0
  0
SEQEND
  8
0
  0
POLYLINE
  8
0
 62
250
 70
0
 66
1
 10
0.0
 20
0.0
 30
0.0
  0
VERTEX
  8
0
 10
-14.272973143830317
 20
20.525161086712533
 30
0.0
  0
VERTEX
  8
0
 10
-12.136936070319402
 20
21.856229834004665
 30
0.0
  0
VERTEX
  8
0
 10
-6.872458764048333
 20
24.03683236746833
 30
0.0
  0
VERTEX
  8
0
 10
-4.420964491664794
 20
24.60599668705657
 30
0.0
  0
SEQEND
  8
0
  0
POLYLINE
  8
0
 62
250
 70
0
 66
1
 10
0.0
 20
0.0
 30
0.0
  0
VERTEX
  8
0
 10
4.420964491664785
 20
24.605996687056575
 30
0.0
  0
VERTEX
  8
0
 10
6.872578989108256
 20
24.036797993291838
 30
0.0
  0
VERTEX
  8
0
 10
12.137045802194564
 20
21.856168898872166
 30
0.0
  0
VERTEX
  8
0
 10
14.272973143830313
 20
20.525161086712536
 30
0.0
  0
SEQEND
  8
0
  0
POLYLINE
  8
0
 62
250
 70
0
 66
1
 10
0.0
 20
0.0
 30
0.0
  0
VERTEX
  8
0
 10
20.52516126967029
 20
14.272972880729043
 30
0.0
  0
VERTEX
  8
0
 10
21.856230168292527
 20
12.136935468332645
 30
0.0
  0
VERTEX
  8
0
 10
24.03683217812601
 20
6.872459426283777
 30
0.0
  0
VERTEX
  8
0
 10
24.605996630386546
 20
4.420964807076157
 30
0.0
  0
SEQEND
  8
0
  0
POLYLINE
  8
0
 62
250
 70
0
 66
1
 10
0.0
 20
0.0
 30
0.0
  0
VERTEX
  8
0
 10
19.03522374907919
 20
16.206796624332995
 30
0.0
  0
VERTEX
  8
0
 10
16.206797587920345
 20
19.03522293069028
 30
0.0
  0
VERTEX
  8
0
 10
19.03522374907919
 20
16.206796624332995
 30
0.0
  0
SEQEND
  8
0
  0
POLYLINE
  8
0
 62
250
 70
0
 66
1
 10
0.0
 20
0.0
 30
0.0
  0
VERTEX
  8
0
 10
19.03522374907919
 20
16.206796624332995
 30
0.0
  0
VERTEX
  8
0
 10
16.206797587920345
 20
19.03522293069028
 30
0.0
  0
VERTEX
  8
0
 10
19.03522374907919
 20
16.206796624332995
 30
0.0
  0
SEQEND
  8
0
  0
POLYLINE
  8
0
 62
250
 70
0
 66
1
 10
0.0
 20
0.0
 30
0.0
  0
VERTEX
  8
0
 10
19.03522374907919
 20
16.206796624332995
 30
0.0
  0
VERTEX
  8
0
 10
16.206797587920345
 20
19.03522293069028
 30
0.0
  0
VERTEX
  8
0
 10
19.03522374907919
 20
16.206796624332995
 30
0.0
  0
SEQEND
  8
0
  0
POLYLINE
  8
0
 62
250
 70
0
 66
1
 10
0.0
 20
0.0
 30
0.0
  0
VERTEX
  8
0
 10
19.03522374907919
 20
16.206796624332995
 30
0.0
  0
VERTEX
  8
0
 10
16.206797587920345
 20
19.03522293069028
 30
0.0
  0
VERTEX
  8
0
 10
19.03522374907919
 20
16.206796624332995
 30
0.0
  0
SEQEND
  8
0
  0
POLYLINE
  8
0
 62
250
 70
0
 66
1
 10
0.0
 20
0.0
 30
0.0
  0
VERTEX
  8
0
 10
19.03522374907919
 20
16.206796624332995
 30
0.0
  0
VERTEX
  8
0
 10
16.206797587920345
 20
19.03522293069028
 30
0.0
  0
VERTEX
  8
0
 10
19.03522374907919
 20
16.206796624332995
 30
0.0
  0
SEQEND
  8
0
  0
POLYLINE
  8
0
 62
250
 70
0
 66
1
 10
0.0
 20
0.0
 30
0.0
  0
VERTEX
  8
0
 10
19.03522374907919
 20
16.206796624332995
 30
0.0
  0
VERTEX
  8
0
 10
16.206797587920345
 20
19.03522293069028
 30
0.0
  0
VERTEX
  8
0
 10
19.03522374907919
 20
16.206796624332995
 30
0.0
  0
SEQEND
  8
0
  0
POLYLINE
  8
0
 62
250
 70
0
 66
1
 10
0.0
 20
0.0
 30
0.0
  0
VERTEX
  8
0
 10
2.000000000000004
 20
24.91987158875423
 30
0.0
  0
VERTEX
  8
0
 10
-1.9999987399525128
 20
24.919871691425023
 30
0.0
  0
VERTEX
  8
0
 10
2.000000000000004
 20
24.91987158875423
 30
0.0
  0
SEQEND
  8
0
  0
POLYLINE
  8
0
 62
250
 70
0
 66
1
 10
0.0
 20
0.0
 30
0.0
  0
VERTEX
  8
0
 10
2.000000000000004
 20
24.91987158875423
 30
0.0
  0
VERTEX
  8
0
 10
-1.9999987399525128
 20
24.919871691425023
 30
0.0
  0
VERTEX
  8
0
 10
2.000000000000004
 20
24.91987158875423
 30
0.0
  0
SEQEND
  8
0
  0
POLYLINE
  8
0
 62
250
 70
0
 66
1
 10
0.0
 20
0.0
 30
0.0
  0
VERTEX
  8
0
 10
2.000000000000004
 20
24.91987158875423
 30
0.0
  0
VERTEX
  8
0
 10
-1.9999987399525128
 20
24.919871691425023
 30
0.0
  0
VERTEX
  8
0
 10
2.000000000000004
 20
24.91987158875423
 30
0.0
  0
SEQEND
  8
0
  0
POLYLINE
  8
0
 62
250
 70
0
 66
1
 10
0.0
 20
0.0
 30
0.0
  0
VERTEX
  8
0
 10
2.000000000000004
 20
24.91987158875423
 30
0.0
  0
VERTEX
  8
0
 10
-1.9999987399525128
 20
24.919871691425023
 30
0.0
  0
VERTEX
  8
0
 10
2.000000000000004
 20
24.91987158875423
 30
0.0
  0
SEQEND
  8
0
  0
POLYLINE
  8
0
 62
250
 70
0
 66
1
 10
0.0
 20
0.0
 30
0.0
  0
VERTEX
  8
0
 10
2.000000000000004
 20
24.91987158875423
 30
0.0
  0
VERTEX
  8
0
 10
-1.9999987399525128
 20
24.919871691425023
 30
0.0
  0
VERTEX
  8
0
 10
2.000000000000004
 20
24.91987158875423
 30
0.0
  0
SEQEND
  8
0
  0
POLYLINE
  8
0
 62
250
 70
0
 66
1
 10
0.0
 20
0.0
 30
0.0
  0
VERTEX
  8
0
 10
2.000000000000004
 20
24.91987158875423
 30
0.0
  0
VERTEX
  8
0
 10
-1.9999987399525128
 20
24.919871691425023
 30
0.0
  0
VERTEX
  8
0
 10
2.000000000000004
 20
24.91987158875423
 30
0.0
  0
SEQEND
  8
0
  0
POLYLINE
  8
0
 62
250
 70
0
 66
1
 10
0.0
 20
0.0
 30
0.0
  0
VERTEX
  8
0
 10
-16.206796624332995
 20
19.035223749079194
 30
0.0
  0
VERTEX
  8
0
 10
-19.035222930824066
 20
16.20679758776533
 30
0.0
  0
VERTEX
  8
0
 10
-16.206796624332995
 20
19.035223749079194
 30
0.0
  0
SEQEND
  8
0
  0
POLYLINE
  8
0
 62
250
 70
0
 66
1
 10
0.0
 20
0.0
 30
0.0
  0
VERTEX
  8
0
 10
-16.206796624332995
 20
19.035223749079194
 30
0.0
  0
VERTEX
  8
0
 10
-19.035222930824066
 20
16.20679758776533
 30
0.0
  0
VERTEX
  8
0
 10
-16.206796624332995
 20
19.035223749079194
 30
0.0
  0
SEQEND
  8
0
  0
POLYLINE
  8
0
 62
250
 70
0
 66
1
 10
0.0
 20
0.0
 30
0.0
  0
VERTEX
  8
0
 10
-16.206796624332995
 20
19.035223749079194
 30
0.0
  0
VERTEX
  8
0
 10
-19.035222930824066
 20
16.20679758776533
 30
0.0
  0
VERTEX
  8
0
 10
-16.206796624332995
 20
19.035223749079194
 30
0.0
  0
SEQEND
  8
0
  0
POLYLINE
  8
0
 62
250
 70
0
 66
1
 10
0.0
 20
0.0
 30
0.0
  0
VERTEX
  8
0
 10
-16.206796624332995
 20
19.035223749079194
 30
0.0
  0
VERTEX
  8
0
 10
-19.035222930824066
 20
16.20679758776533
 30
0.0
  0
VERTEX
  8
0
 10
-16.206796624332995
 20
19.035223749079194
 30
0.0
  0
SEQEND
  8
0
  0
POLYLINE
  8
0
 62
250
 70
0
 66
1
 10
0.0
 20
0.0
 30
0.0
  0
VERTEX
  8
0
 10
-16.206796624332995
 20
19.035223749079194
 30
0.0
  0
VERTEX
  8
0
 10
-19.035222930824066
 20
16.20679758776533
 30
0.0
  0
VERTEX
  8
0
 10
-16.206796624332995
 20
19.035223749079194
 30
0.0
  0
SEQEND
  8
0
  0
POLYLINE
  8
0
 62
250
 70
0
 66
1
 10
0.0
 20
0.0
 30
0.0
  0
VERTEX
  8
0
 10
-16.206796624332995
 20
19.035223749079194
 30
0.0
  0
VERTEX
  8
0
 10
-19.035222930824066
 20
16.20679758776533
 30
0.0
  0
VERTEX
  8
0
 10
-16.206796624332995
 20
19.035223749079194
 30
0.0
  0
SEQEND
  8
0
  0
POLYLINE
  8
0
 62
250
 70
0
 66
1
 10
0.0
 20
0.0
 30
0.0
  0
VERTEX
  8
0
 10
-2.0000000000000004
 20
-24.91987158875423
 30
0.0
  0
VERTEX
  8
0
 10
1.9999987401589512
 20
-24.91987169140983
 30
0.0
  0
VERTEX
  8
0
 10
-2.0000000000000004
 20
-24.91987158875423
 30
0.0
  0
SEQEND
  8
0
  0
POLYLINE
  8
0
 62
250
 70
0
 66
1
 10
0.0
 20
0.0
 30
0.0
  0
VERTEX
  8
0
 10
-2.0000000000000004
 20
-24.91987158875423
 30
0.0
  0
VERTEX
  8
0
 10
1.9999987401589512
 20
-24.91987169140983
 30
0.0
  0
VERTEX
  8
0
 10
-2.0000000000000004
 20
-24.91987158875423
 30
0.0
  0
SEQEND
  8
0
  0
POLYLINE
  8
0
 62
250
 70
0
 66
1
 10
0.0
 20
0.0
 30
0.0
  0
VERTEX
  8
0
 10
-2.0000000000000004
 20
-24.91987158875423
 30
0.0
  0
VERTEX
  8
0
 10
1.9999987401589512
 20
-24.91987169140983
 30
0.0
  0
VERTEX
  8
0
 10
-2.0000000000000004
 20
-24.91987158875423
 30
0.0
  0
SEQEND
  8
0
  0
POLYLINE
  8
0
 62
250
 70
0
 66
1
 10
0.0
 20
0.0
 30
0.0
  0
VERTEX
  8
0
 10
-2.0000000000000004
 20
-24.91987158875423
 30
0.0
  0
VERTEX
  8
0
 10
1.9999987401589512
 20
-24.91987169140983
 30
0.0
  0
VERTEX
  8
0
 10
-2.0000000000000004
 20
-24.91987158875423
 30
0.0
  0
SEQEND
  8
0
  0
POLYLINE
  8
0
 62
250
 70
0
 66
1
 10
0.0
 20
0.0
 30
0.0
  0
VERTEX
  8
0
 10
-2.0000000000000004
 20
-24.91987158875423
 30
0.0
  0
VERTEX
  8
0
 10
1.9999987401589512
 20
-24.91987169140983
 30
0.0
  0
VERTEX
  8
0
 10
-2.0000000000000004
 20
-24.91987158875423
 30
0.0
  0
SEQEND
  8
0
  0
POLYLINE
  8
0
 62
250
 70
0
 66
1
 10
0.0
 20
0.0
 30
0.0
  0
VERTEX
  8
0
 10
-2.0000000000000004
 20
-24.91987158875423
 30
0.0
  0
VERTEX
  8
0
 10
1.9999987401589512
 20
-24.91987169140983
 30
0.0
  0
VERTEX
  8
0
 10
-2.0000000000000004
 20
-24.91987158875423
 30
0.0
  0
SEQEND
  8
0
  0
POLYLINE
  8
0
 62
250
 70
0
 66
1
 10
0.0
 20
0.0
 30
0.0
  0
VERTEX
  8
0
 10
16.206796624333005
 20
-19.035223749079194
 30
0.0
  0
VERTEX
  8
0
 10
19.035222930824744
 20
-16.20679758776454
 30
0.0
  0
VERTEX
  8
0
 10
16.206796624333005
 20
-19.035223749079194
 30
0.0
  0
SEQEND
  8
0
  0
POLYLINE
  8
0
 62
250
 70
0
 66
1
 10
0.0
 20
0.0
 30
0.0
  0
VERTEX
  8
0
 10
16.206796624333005
 20
-19.035223749079194
 30
0.0
  0
VERTEX
  8
0
 10
19.035222930824744
 20
-16.20679758776454
 30
0.0
  0
VERTEX
  8
0
 10
16.206796624333005
 20
-19.035223749079194
 30
0.0
  0
SEQEND
  8
0
  0
POLYLINE
  8
0
 62
250
 70
0
 66
1
 10
0.0
 20
0.0
 30
0.0
  0
VERTEX
  8
0
 10
16.206796624333005
 20
-19.035223749079194
 30
0.0
  0
VERTEX
  8
0
 10
19.035222930824744
 20
-16.20679758776454
 30
0.0
  0
VERTEX
  8
0
 10
16.206796624333005
 20
-19.035223749079194
 30
0.0
  0
SEQEND
  8
0
  0
POLYLINE
  8
0
 62
250
 70
0
 66
1
 10
0.0
 20
0.0
 30
0.0
  0
VERTEX
  8
0
 10
16.206796624333005
 20
-19.035223749079194
 30
0.0
  0
VERTEX
  8
0
 10
19.035222930824744
 20
-16.20679758776454
 30
0.0
  0
VERTEX
  8
0
 10
16.206796624333005
 20
-19.035223749079194
 30
0.0
  0
SEQEND
  8
0
  0
POLYLINE
  8
0
 62
250
 70
0
 66
1
 10
0.0
 20
0.0
 30
0.0
  0
VERTEX
  8
0
 10
16.206796624333005
 20
-19.035223749079194
 30
0.0
  0
VERTEX
  8
0
 10
19.035222930824744
 20
-16.20679758776454
 30
0.0
  0
VERTEX
  8
0
 10
16.206796624333005
 20
-19.035223749079194
 30
0.0
  0
SEQEND
  8
0
  0
POLYLINE
  8
0
 62
250
 70
0
 66
1
 10
0.0
 20
0.0
 30
0.0
  0
VERTEX
  8
0
 10
16.206796624333005
 20
-19.035223749079194
 30
0.0
  0
VERTEX
  8
0
 10
19.035222930824744
 20
-16.20679758776454
 30
0.0
  0
VERTEX
  8
0
 10
16.206796624333005
 20
-19.035223749079194
 30
0.0
  0
SEQEND
  8
0
  0
POLYLINE
  8
0
 62
250
 70
0
 66
1
 10
0.0
 20
0.0
 30
0.0
  0
VERTEX
  8
0
 10
-24.91987158875423
 20
1.9999999999999998
 30
0.0
  0
VERTEX
  8
0
 10
-24.919878269092486
 20
-1.999916766732939
 30
0.0
  0
VERTEX
  8
0
 10
-24.919871588754226
 20
1.9999999999999996
 30
0.0
  0
SEQEND
  8
0
  0
POLYLINE
  8
0
 62
250
 70
0
 66
1
 10
0.0
 20
0.0
 30
0.0
  0
VERTEX
  8
0
 10
-24.91987158875423
 20
1.9999999999999998
 30
0.0
  0
VERTEX
  8
0
 10
-24.919878269092486
 20
-1.999916766732939
 30
0.0
  0
VERTEX
  8
0
 10
-24.919871588754226
 20
1.9999999999999996
 30
0.0
  0
SEQEND
  8
0
  0
POLYLINE
  8
0
 62
250
 70
0
 66
1
 10
0.0
 20
0.0
 30
0.0
  0
VERTEX
  8
0
 10
-24.91987158875423
 20
1.9999999999999998
 30
0.0
  0
VERTEX
  8
0
 10
-24.919878269092486
 20
-1.999916766732939
 30
0.0
  0
VERTEX
  8
0
 10
-24.919871588754226
 20
1.9999999999999996
 30
0.0
  0
SEQEND
  8
0
  0
POLYLINE
  8
0
 62
250
 70
0
 66
1
 10
0.0
 20
0.0
 30
0.0
  0
VERTEX
  8
0
 10
-24.91987158875423
 20
1.9999999999999998
 30
0.0
  0
VERTEX
  8
0
 10
-24.919878269092486
 20
-1.999916766732939
 30
0.0
  0
VERTEX
  8
0
 10
-24.919871588754226
 20
1.9999999999999996
 30
0.0
  0
SEQEND
  8
0
  0
POLYLINE
  8
0
 62
250
 70
0
 66
1
 10
0.0
 20
0.0
 30
0.0
  0
VERTEX
  8
0
 10
-24.91987158875423
 20
1.9999999999999998
 30
0.0
  0
VERTEX
  8
0
 10
-24.919878269092486
 20
-1.999916766732939
 30
0.0
  0
VERTEX
  8
0
 10
-24.919871588754226
 20
1.9999999999999996
 30
0.0
  0
SEQEND
  8
0
  0
POLYLINE
  8
0
 62
250
 70
0
 66
1
 10
0.0
 20
0.0
 30
0.0
  0
VERTEX
  8
0
 10
-24.91987158875423
 20
1.9999999999999998
 30
0.0
  0
VERTEX
  8
0
 10
-24.919878269092486
 20
-1.999916766732939
 30
0.0
  0
VERTEX
  8
0
 10
-24.919871588754226
 20
1.9999999999999996
 30
0.0
  0
SEQEND
  8
0
  0
POLYLINE
  8
0
 62
250
 70
0
 66
1
 10
0.0
 20
0.0
 30
0.0
  0
VERTEX
  8
0
 10
-19.03522374907919
 20
-16.206796624333
 30
0.0
  0
VERTEX
  8
0
 10
-16.206797587768495
 20
-19.03522293082138
 30
0.0
  0
VERTEX
  8
0
 10
-19.03522374907919
 20
-16.206796624333
 30
0.0
  0
SEQEND
  8
0
  0
POLYLINE
  8
0
 62
250
 70
0
 66
1
 10
0.0
 20
0.0
 30
0.0
  0
VERTEX
  8
0
 10
-19.03522374907919
 20
-16.206796624333
 30
0.0
  0
VERTEX
  8
0
 10
-16.206797587768495
 20
-19.03522293082138
 30
0.0
  0
VERTEX
  8
0
 10
-19.03522374907919
 20
-16.206796624333
 30
0.0
  0
SEQEND
  8
0
  0
POLYLINE
  8
0
 62
250
 70
0
 66
1
 10
0.0
 20
0.0
 30
0.0
  0
VERTEX
  8
0
 10
-19.03522374907919
 20
-16.206796624333
 30
0.0
  0
VERTEX
  8
0
 10
-16.206797587768495
 20
-19.03522293082138
 30
0.0
  0
VERTEX
  8
0
 10
-19.03522374907919
 20
-16.206796624333
 30
0.0
  0
SEQEND
  8
0
  0
POLYLINE
  8
0
 62
250
 70
0
 66
1
 10
0.0
 20
0.0
 30
0.0
  0
VERTEX
  8
0
 10
-19.03522374907919
 20
-16.206796624333
 30
0.0
  0
VERTEX
  8
0
 10
-16.206797587768495
 20
-19.03522293082138
 30
0.0
  0
VERTEX
  8
0
 10
-19.03522374907919
 20
-16.206796624333
 30
0.0
  0
SEQEND
  8
0
  0
POLYLINE
  8
0
 62
250
 70
0
 66
1
 10
0.0
 20
0.0
 30
0.0
  0
VERTEX
  8
0
 10
-19.03522374907919
 20
-16.206796624333
 30
0.0
  0
VERTEX
  8
0
 10
-16.206797587768495
 20
-19.03522293082138
 30
0.0
  0
VERTEX
  8
0
 10
-19.03522374907919
 20
-16.206796624333
 30
0.0
  0
SEQEND
  8
0
  0
POLYLINE
  8
0
 62
250
 70
0
 66
1
 10
0.0
 20
0.0
 30
0.0
  0
VERTEX
  8
0
 10
-19.03522374907919
 20
-16.206796624333
 30
0.0
  0
VERTEX
  8
0
 10
-16.206797587768495
 20
-19.03522293082138
 30
0.0
  0
VERTEX
  8
0
 10
-19.03522374907919
 20
-16.206796624333
 30
0.0
  0
SEQEND
  8
0
  0
ENDBLK
  0
ENDSEC
  0
SECTION
  2
ENTITIES
  0
INSERT
  2
SKETCH004
  8
0
 62
250
 10
0.0
 20
0.0
 30
0.0
  0
ENDSEC
  0
EOF
